<svg version="1.1" xmlns="http://www.w3.org/2000/svg" x="0px" y="0px" width="31" viewBox="0 0 3000 597" >
  <path fill="#FFFFFF" opacity="1.000000" stroke="none" d=" M670.042114,595.885193 C668.182678,584.500244 672.360535,576.334839 680.862061,568.179199 C710.079224,540.150757 738.388733,511.174316 766.921448,482.437286 C769.498169,479.842133 772.033264,478.928772 775.607056,478.930389 C952.425598,479.009766 1129.244141,479.000000 1306.531372,479.000000 C1307.000000,484.354919 1307.000000,489.709869 1306.693115,495.606628 C1305.555298,497.082336 1304.724609,498.016235 1303.589233,499.082642 C1276.977661,525.522156 1250.660645,551.819031 1224.371704,578.143921 C1218.516479,584.007202 1212.759888,589.968933 1206.500488,595.933899 C1028.373535,595.988220 850.703796,595.994141 673.034058,595.994995 C672.036743,595.994995 671.039429,595.923340 670.042114,595.885193 z"/>
  <path fill="#FFFFFF" opacity="1.000000" stroke="none" d=" M597.531372,1.000000 C598.000000,123.091705 597.983215,245.183426 598.078369,367.275055 C598.081299,371.063721 596.954468,373.661285 594.281433,376.329071 C521.541992,448.925964 448.888824,521.609314 375.785400,594.717651 C374.899719,596.104797 374.449860,597.052368 374.000000,598.000000 C249.739700,598.000000 125.479385,598.000000 1.000000,598.000000 C1.000000,474.312531 1.000000,350.624908 1.323256,226.380615 C75.714371,151.770676 149.783035,77.718246 223.839432,3.653540 C224.641754,2.851144 225.283371,1.888066 226.000000,1.000000 C349.687561,1.000000 473.375122,1.000000 597.531372,1.000000 z"/>
</svg>